<svg xmlns="http://www.w3.org/2000/svg" shape-rendering="geometricPrecision" text-rendering="geometricPrecision" image-rendering="optimizeQuality" fill-rule="evenodd" clip-rule="evenodd" viewBox="0 0 512 478.17"><path fill-rule="nonzero" d="M413.76 45.09H98.24c-14.59 0-27.88 5.99-37.52 15.63-9.64 9.64-15.63 22.93-15.63 37.52v281.7c0 14.58 5.99 27.87 15.64 37.51 9.64 9.64 22.92 15.63 37.51 15.63h315.52c14.59 0 27.88-5.99 37.52-15.63 9.64-9.64 15.63-22.92 15.63-37.51V98.24c0-14.65-5.95-27.93-15.54-37.52l-.09-.09c-9.59-9.59-22.87-15.54-37.52-15.54zM192.19 228.91l83.7-79.18c5.62-5.32 14.5-5.07 19.81.55a13.94 13.94 0 0 1 3.84 9.63h.07v158.35c0 7.78-6.3 14.09-14.09 14.09-4.27 0-8.1-1.9-10.69-4.91l-82.64-78.17c-5.62-5.32-5.87-14.19-.55-19.81l.55-.55zM98.24 0h315.52c26.92 0 51.42 11.02 69.26 28.79l.14.14C500.96 46.77 512 71.3 512 98.24v281.7c0 27.03-11.05 51.6-28.84 69.39-17.8 17.79-42.37 28.84-69.4 28.84H98.24c-27.03 0-51.6-11.05-69.39-28.85C11.05 431.53 0 406.96 0 379.94V98.24c0-27.03 11.05-51.6 28.84-69.4C46.64 11.05 71.2 0 98.24 0z"/></svg>